# xmcd
#
# Track frame offsets:
#	150
#	45267
#	59547
#	74006
#	150608
#	245490
#	293208
#
# Disc length: 4175 seconds
#
# Revision: 4
# Processed by: cddbd v1.5.2PL0 Copyright (c) Steve Scherf et al.
# Submitted via: audiograbber 1.83.01
#
DISCID=63104d07
DTITLE=Tangerine Dream - The Virgin Years 1974-1978 [CD 2) [remastered]
DYEAR=2011
DGENRE=Electronic
TTITLE0=Rubycon [bonus tracks] - Rubycon Part Two [excerpt]
TTITLE1=Rubycon [bonus tracks] - Rubycon [7" side one]
TTITLE2=Rubycon [bonus tracks] - Rubycon [7" side two]
TTITLE3=Ricochet - Ricochet Part One
TTITLE4=Ricochet - Ricochet Part Two
TTITLE5=Stratosfear [side one] - Stratosfear
TTITLE6=Stratosfear [side one] - The Big Sleep In Search Of Hades
EXTD=
EXTT0=
EXTT1=
EXTT2=
EXTT3=
EXTT4=
EXTT5=
EXTT6=
PLAYORDER=
